<?xml version="1.0" encoding="UTF-8" standalone="no"?>
<svg
   xmlns:dc="http://purl.org/dc/elements/1.1/"
   xmlns:cc="http://creativecommons.org/ns#"
   xmlns:rdf="http://www.w3.org/1999/02/22-rdf-syntax-ns#"
   xmlns:svg="http://www.w3.org/2000/svg"
   xmlns="http://www.w3.org/2000/svg"
   xmlns:sodipodi="http://sodipodi.sourceforge.net/DTD/sodipodi-0.dtd"
   xmlns:inkscape="http://www.inkscape.org/namespaces/inkscape"
   width="48"
   height="48"
   viewBox="0 0 48 48"
   id="svg5176"
   version="1.1"
   inkscape:version="0.91 r13725"
   sodipodi:docname="ic_launcher.svg">
  <metadata
     id="metadata5184">
    <rdf:RDF>
      <cc:Work
         rdf:about="">
        <dc:format>image/svg+xml</dc:format>
        <dc:type
           rdf:resource="http://purl.org/dc/dcmitype/StillImage" />
        <dc:title></dc:title>
      </cc:Work>
    </rdf:RDF>
  </metadata>
  <defs
     id="defs5182" />
  <sodipodi:namedview
     pagecolor="#ffffff"
     bordercolor="#666666"
     borderopacity="1"
     objecttolerance="10"
     gridtolerance="10"
     guidetolerance="10"
     inkscape:pageopacity="0"
     inkscape:pageshadow="2"
     inkscape:window-width="1920"
     inkscape:window-height="1056"
     id="namedview5180"
     showgrid="false"
     inkscape:object-nodes="true"
     inkscape:snap-smooth-nodes="true"
     inkscape:snap-intersection-paths="true"
     inkscape:object-paths="true"
     showguides="true"
     inkscape:guide-bbox="true"
     inkscape:snap-nodes="true"
     inkscape:zoom="16"
     inkscape:cx="36.437503"
     inkscape:cy="19.521361"
     inkscape:window-x="0"
     inkscape:window-y="24"
     inkscape:window-maximized="1"
     inkscape:current-layer="svg5176" />
  <g
     transform="matrix(0.16424257,0,0,0.16424257,-32.416883,-85.412918)"
     id="layer1"
     inkscape:label="Ebene 1">
    <path
       style="color:#000000;display:inline;overflow:visible;visibility:visible;fill:#3b1c4a;fill-opacity:1;fill-rule:nonzero;stroke:none;marker:none;enable-background:accumulate"
       d="M 2 4 L 2 8 L 6 8 L 8.6542969 13.599609 C 10.523118 13.599609 12.039062 15.12354 12.039062 17.001953 C 12.039062 17.805216 11.740984 18.553554 11.277344 19.134766 L 13.189453 23.169922 L 11.619141 26.021484 L 10.490234 28.070312 C 10.180234 28.650312 10 29.3 10 30 C 10 32.21 11.79 34 14 34 L 38 34 L 38 30 L 14.849609 30 C 14.569609 30 14.349609 29.78 14.349609 29.5 C 14.349609 29.41 14.370156 29.329766 14.410156 29.259766 L 16.191406 26.013672 L 24.429688 26 L 24.429688 24.439453 L 24.919922 24.439453 L 24.919922 26 L 31.337891 25.992188 C 33.20422 25.859606 34.132489 24.711255 34.599609 23.939453 L 37.421875 18.816406 C 37.091568 18.291912 36.90625 17.668922 36.90625 17.001953 C 36.90625 15.12354 38.422196 13.599609 40.291016 13.599609 L 40.296875 13.599609 L 41.75 10.960938 C 41.966145 10.578436 42 10.246198 42 10 C 42 10 42.026042 8.1354164 40 8 L 24.919922 8 L 24.919922 9.4941406 L 24.429688 9.4941406 L 24.429688 8 L 10.429688 8 L 8.5292969 4 L 2 4 z M 24.429688 10.642578 L 24.919922 10.642578 L 24.919922 12.943359 L 24.429688 12.943359 L 24.429688 10.642578 z M 24.429688 14.091797 L 24.919922 14.091797 L 24.919922 16.392578 L 24.429688 16.392578 L 24.429688 14.091797 z M 20.421875 14.697266 C 21.082978 14.697271 21.576077 14.880107 21.898438 15.248047 C 22.220793 15.610506 22.376953 16.113698 22.376953 16.761719 L 22.376953 17.398438 C 22.376953 18.046463 22.220793 18.553931 21.898438 18.921875 C 21.576077 19.28433 21.082978 19.466797 20.421875 19.466797 C 20.323527 19.466797 20.206902 19.46216 20.070312 19.451172 C 19.933717 19.445686 19.787746 19.432122 19.634766 19.410156 L 19.634766 20.867188 C 19.634764 20.911119 19.616766 20.947517 19.583984 20.980469 C 19.5512 21.013417 19.516363 21.031248 19.472656 21.03125 L 18.716797 21.03125 C 18.673085 21.031248 18.636298 21.013417 18.603516 20.980469 C 18.570734 20.947517 18.552734 20.911119 18.552734 20.867188 L 18.552734 15.134766 C 18.552734 15.074362 18.566433 15.027463 18.59375 15 C 18.621068 14.967055 18.680555 14.935666 18.773438 14.908203 C 19.030231 14.842307 19.304176 14.792352 19.59375 14.753906 C 19.883324 14.715469 20.159616 14.697279 20.421875 14.697266 z M 20.421875 15.585938 C 20.274354 15.585941 20.125637 15.590591 19.972656 15.601562 C 19.825135 15.61255 19.711255 15.626106 19.634766 15.642578 L 19.634766 18.517578 C 19.749501 18.534053 19.880218 18.547611 20.033203 18.558594 C 20.191648 18.569582 20.323527 18.578127 20.421875 18.578125 C 20.59671 18.578127 20.740729 18.546738 20.855469 18.486328 C 20.970204 18.425918 21.061386 18.344578 21.126953 18.240234 C 21.192514 18.135893 21.237908 18.011927 21.259766 17.869141 C 21.287081 17.726358 21.300778 17.568683 21.300781 17.398438 L 21.300781 16.761719 C 21.300778 16.59148 21.287084 16.437709 21.259766 16.294922 C 21.237908 16.152139 21.192514 16.028175 21.126953 15.923828 C 21.061386 15.81949 20.970204 15.738146 20.855469 15.677734 C 20.740729 15.617329 20.59671 15.585933 20.421875 15.585938 z M 24.429688 17.541016 L 24.919922 17.541016 L 24.919922 19.841797 L 24.429688 19.841797 L 24.429688 17.541016 z M 24.429688 20.990234 L 24.919922 20.990234 L 24.919922 23.289062 L 24.429688 23.289062 L 24.429688 20.990234 z M 14 36 C 11.79 36 10.019531 37.79 10.019531 40 C 10.019531 42.21 11.79 44 14 44 C 16.21 44 18 42.21 18 40 C 18 37.79 16.21 36 14 36 z M 34 36 C 31.79 36 30.019531 37.79 30.019531 40 C 30.019531 42.21 31.79 44 34 44 C 36.21 44 38 42.21 38 40 C 38 37.79 36.21 36 34 36 z "
       transform="matrix(6.0885555,0,0,6.0885555,197.37199,520.04129)"
       id="rect3888" />
  </g>
</svg>
